<?xml version="1.0" encoding="utf-8"?>
<!-- Generator: Adobe Illustrator 25.2.1, SVG Export Plug-In . SVG Version: 6.00 Build 0)  -->
<svg version="1.1" id="Layer_1" xmlns="http://www.w3.org/2000/svg" xmlns:xlink="http://www.w3.org/1999/xlink" x="0px" y="0px"
	 viewBox="0 0 1080 1080" style="enable-background:new 0 0 1080 1080;" xml:space="preserve">
<style type="text/css">
	.st0{fill:#FFFFFF;}
	.st1{fill:#FFFFFF;stroke:#231F20;stroke-width:8;stroke-miterlimit:10;}
	.st2{fill:#FFFFFF;stroke:#231F20;stroke-width:10;stroke-miterlimit:10;}
</style>
<g>
	<path class="st0" d="M281.14,840.47l58.37,89.82h-38.6l-40.03-64.09l-23.11,30.97v33.12h-33.12V760.65h33.12v94.82l64.09-94.82
		h33.35L281.14,840.47z"/>
	<path class="st0" d="M396.22,930.29H363.1V760.65h33.12V930.29z"/>
	<path class="st0" d="M558.7,881.45c0,15.72-4.25,27.8-12.75,36.21c-8.5,8.42-20.37,12.63-35.62,12.63h-22.87
		c-18.74,0-32.04-3.25-39.91-9.77c-7.86-6.51-11.79-17.79-11.79-33.83V760.65h71.71c16.2,0,28.39,4.05,36.57,12.15
		c8.18,8.1,12.27,19.54,12.27,34.31c0,8.58-2.18,15.88-6.55,21.92c-4.37,6.04-9.17,10.33-14.41,12.87
		C550.92,849.21,558.7,862.39,558.7,881.45z M504.86,826.89c12.23,0,18.35-6.11,18.35-18.35c0-12.23-6.12-18.34-18.35-18.34h-35.98
		v36.69H504.86z M525.59,879.78c0-7.62-1.35-13.38-4.05-17.27c-2.7-3.89-7.55-5.84-14.53-5.84h-38.12v26.68
		c0,6.51,1.63,11.04,4.88,13.58c3.25,2.54,8.61,3.81,16.08,3.81H507C519.39,900.75,525.59,893.76,525.59,879.78z"/>
	<path class="st0" d="M718.57,930.29h-33.12v-68.62h-62.18v68.62h-33.12V760.65h33.12v71.71h62.18v-71.71h33.12V930.29z"/>
	<path class="st0" d="M880.34,760.65v111.5c0,18.43-6.24,32.96-18.7,43.6c-12.47,10.64-27.84,15.96-46.1,15.96
		c-18.27,0-33.63-5.32-46.1-15.96c-12.47-10.64-18.7-25.17-18.7-43.6v-111.5h33.12v110.31c0,10.48,2.9,18.31,8.7,23.47
		c5.8,5.16,13.46,7.74,22.99,7.74c9.53,0,17.23-2.58,23.11-7.74c5.88-5.16,8.82-12.99,8.82-23.47V760.65H880.34z"/>
</g>
<g>
	<path class="st0" d="M186.35,955.04c0.74,0,1.49,0.41,1.49,1.24v51.81c0,1.07-2.81,2.48-4.3,2.48c-0.91,0-1.65-0.17-1.65-1.16
		v-51.89C181.89,956.28,184.54,955.04,186.35,955.04z"/>
	<path class="st0" d="M203.71,978.68c2.07-1.74,7.44-5.04,14.87-5.04c2.89,0,12.81,1.65,12.81,13.8v20.66c0,1.24-2.48,2.48-4.3,2.48
		c-0.91,0-1.65-0.33-1.65-1.16v-20.82c0-7.93-4.63-11.15-9.5-11.15c-4.3,0-9.5,2.56-12.23,6.69v23.96c0,1.24-2.48,2.48-4.3,2.48
		c-0.91,0-1.65-0.33-1.65-1.16v-32.39c0-1.32,2.64-2.56,4.3-2.56c0.91,0,1.65,0.41,1.65,1.24V978.68z"/>
	<path class="st0" d="M274.35,975.54c0,0.17-0.08,0.33-0.17,0.58l-15.2,33.13c-0.58,1.24-2.56,2.15-3.97,2.15
		c-0.74,0-1.4-0.17-1.65-0.83l-15.04-33.13c-0.08-0.08-0.08-0.17-0.08-0.25c0-1.57,3.31-2.73,4.46-2.73c0.58,0,1.16,0.17,1.4,0.66
		l12.56,27.68c0,0,10.41-22.8,11.98-26.28c0.66-1.16,2.48-2.07,3.8-2.07C273.28,974.46,274.35,974.71,274.35,975.54z"/>
	<path class="st0" d="M313.11,988.67c0,0.74,0,1.49-0.17,2.15c-0.33,1.57-2.48,2.48-3.88,2.48h-27.02c0,7.02,5.45,14.38,13.14,14.38
		c3.97,0,8.68-1.74,10.99-4.05c0.91-0.91,1.9-1.07,3.06-1.07c0.74,0,1.49,0.41,1.49,1.32c0,0.58-0.5,1.24-0.91,1.57
		c-3.72,3.47-10.66,5.87-16.69,5.87c-10.16,0-17.1-6.86-17.1-17.68c0-11.24,8.43-19.83,20-19.83
		C305.75,973.8,313.11,981.98,313.11,988.67z M307.32,989.75c-0.5-6.94-6.2-12.31-13.8-12.31c-6.03,0-10.49,5.54-11.48,12.31H307.32
		z"/>
	<path class="st0" d="M328.14,978.68c2.07-1.74,7.44-5.04,14.87-5.04c2.89,0,12.81,1.65,12.81,13.8v20.66c0,1.24-2.48,2.48-4.3,2.48
		c-0.91,0-1.65-0.33-1.65-1.16v-20.82c0-7.93-4.63-11.15-9.5-11.15c-4.3,0-9.5,2.56-12.23,6.69v23.96c0,1.24-2.48,2.48-4.3,2.48
		c-0.91,0-1.65-0.33-1.65-1.16v-32.39c0-1.32,2.64-2.56,4.3-2.56c0.91,0,1.65,0.41,1.65,1.24V978.68z"/>
	<path class="st0" d="M385.82,974.46c0.83,0,2.07,0.17,2.07,0.99c0,1.32-2.64,2.56-4.05,2.56h-10.33v23.3c0,4.38,3.39,6.61,6.2,6.61
		c1.16,0,2.15-0.58,2.81-1.24c1.4-1.49,3.14-1.57,3.97-1.57c0.99,0.08,1.4,0.5,1.4,0.99c0,0.74-1.4,1.9-3.47,3.22
		c-2.23,1.49-4.54,2.07-7.6,2.07c-5.04,0-9.17-3.22-9.17-9.01v-24.38h-4.05c-0.66,0-1.9-0.08-1.9-0.91c0-1.57,2.48-2.64,3.88-2.64
		h2.07v-13.8c0-1.49,2.64-2.48,4.21-2.48c0.83,0,1.65,0.25,1.65,1.16v15.12H385.82z"/>
	<path class="st0" d="M428.04,1008.09c0,1.32-2.56,2.48-4.3,2.48c-0.91,0-1.57-0.33-1.57-1.16v-1.49
		c-4.13,2.23-8.76,3.47-14.13,3.47c-2.56,0-7.44-0.5-10.41-2.48c-2.4-1.57-5.12-5.04-5.12-9.01c0-6.44,4.05-10,9.42-11.98
		c3.72-1.4,7.44-1.49,10.16-1.49c3.88,0,7.93,1.24,10.08,1.74c0-6.11-3.88-11.07-12.39-11.07c-3.06,0-5.45,0.25-9.01,1.74
		c-0.99,0.41-2.07,1.07-3.06,1.07c-0.5,0-1.57-0.08-1.57-1.07c0-0.58,0.5-1.07,1.07-1.49c3.8-2.73,8.68-3.72,13.05-3.72
		c8.92,0,17.76,2.97,17.76,15.78V1008.09z M422.17,991.9c-2.56-1.74-6.28-2.48-9.5-2.48c-5.54,0-14.21,1.57-14.21,9.01
		c0,6.03,6.44,9.25,12.48,9.25c4.46,0,9.83-1.24,11.24-5.54V991.9z"/>
	<path class="st0" d="M461.34,976.2c0,1.65-2.81,2.56-4.3,2.56c-0.58,0-1.24-0.17-1.49-0.74c-0.33-0.25-0.83-0.58-1.65-0.58
		c-2.4,0-6.53,2.15-9.09,8.01v22.64c0,1.65-2.73,2.48-4.3,2.48c-0.83,0-1.65-0.17-1.65-1.16v-32.39c0-1.57,2.89-2.56,4.46-2.56
		c0.74,0,1.49,0.17,1.49,1.07v2.81c2.48-2.23,6.69-4.71,10.91-4.71C458.94,973.64,461.34,974.54,461.34,976.2z"/>
	<path class="st0" d="M469.02,962.73c2.23,0,3.39,1.41,3.39,3.06c0,2.07-2.23,3.47-4.3,3.47c-1.98,0-3.47-1.24-3.47-2.89
		C464.64,964.3,466.63,962.73,469.02,962.73z M467.37,1010.57c-0.83,0-1.65-0.17-1.65-1.16v-32.39c0-1.32,2.64-2.56,4.13-2.56
		c0.99,0,1.65,0.5,1.65,1.07v32.55C471.42,1009.58,468.78,1010.57,467.37,1010.57z"/>
	<path class="st0" d="M515.62,991.9c0,11.16-8.01,19.5-19.83,19.5c-10.08,0-16.94-7.6-16.94-17.76c0-10.49,7.68-20,19.67-20
		C507.94,973.64,515.62,982.15,515.62,991.9z M509.76,993.22c0-7.35-5.54-15.86-13.96-15.86c-7.11,0-11.15,8.26-11.15,14.87
		c0,7.44,5.12,15.53,13.63,15.53C505.71,1007.76,509.76,1000.9,509.76,993.22z"/>
	<path class="st0" d="M580.49,988.67c0,0.74,0,1.49-0.17,2.15c-0.33,1.57-2.48,2.48-3.88,2.48h-27.02c0,7.02,5.45,14.38,13.14,14.38
		c3.97,0,8.68-1.74,10.99-4.05c0.91-0.91,1.9-1.07,3.06-1.07c0.74,0,1.49,0.41,1.49,1.32c0,0.58-0.5,1.24-0.91,1.57
		c-3.72,3.47-10.66,5.87-16.69,5.87c-10.16,0-17.1-6.86-17.1-17.68c0-11.24,8.43-19.83,20-19.83
		C573.13,973.8,580.49,981.98,580.49,988.67z M574.7,989.75c-0.5-6.94-6.2-12.31-13.8-12.31c-6.03,0-10.49,5.54-11.49,12.31H574.7z"
		/>
	<path class="st0" d="M595.52,978.68c2.07-1.74,7.44-5.04,14.87-5.04c2.89,0,12.81,1.65,12.81,13.8v20.66c0,1.24-2.48,2.48-4.3,2.48
		c-0.91,0-1.65-0.33-1.65-1.16v-20.82c0-7.93-4.63-11.15-9.5-11.15c-4.3,0-9.5,2.56-12.23,6.69v23.96c0,1.24-2.48,2.48-4.3,2.48
		c-0.91,0-1.65-0.33-1.65-1.16v-32.39c0-1.32,2.64-2.56,4.3-2.56c0.91,0,1.65,0.41,1.65,1.24V978.68z"/>
	<path class="st0" d="M659.48,955.04c0.83,0,1.49,0.25,1.49,0.99v52.14c0,1.24-2.56,2.4-4.21,2.4c-0.91,0-1.57-0.33-1.57-0.99
		v-52.05C655.18,956.12,657.66,955.04,659.48,955.04z"/>
	<path class="st0" d="M702.36,1008.09c0,1.32-2.56,2.48-4.3,2.48c-0.91,0-1.57-0.33-1.57-1.16v-1.49
		c-4.13,2.23-8.76,3.47-14.13,3.47c-2.56,0-7.44-0.5-10.41-2.48c-2.4-1.57-5.12-5.04-5.12-9.01c0-6.44,4.05-10,9.42-11.98
		c3.72-1.4,7.44-1.49,10.16-1.49c3.88,0,7.93,1.24,10.08,1.74c0-6.11-3.88-11.07-12.39-11.07c-3.06,0-5.45,0.25-9.01,1.74
		c-0.99,0.41-2.07,1.07-3.06,1.07c-0.5,0-1.57-0.08-1.57-1.07c0-0.58,0.5-1.07,1.07-1.49c3.8-2.73,8.68-3.72,13.05-3.72
		c8.92,0,17.76,2.97,17.76,15.78V1008.09z M696.5,991.9c-2.56-1.74-6.28-2.48-9.5-2.48c-5.54,0-14.21,1.57-14.21,9.01
		c0,6.03,6.44,9.25,12.48,9.25c4.46,0,9.83-1.24,11.24-5.54V991.9z"/>
	<path class="st0" d="M740.37,978.68c2.07-1.74,7.44-5.04,14.87-5.04c2.89,0,12.81,1.65,12.81,13.8v20.66c0,1.24-2.48,2.48-4.3,2.48
		c-0.91,0-1.65-0.33-1.65-1.16v-20.82c0-7.93-4.63-11.15-9.5-11.15c-4.3,0-9.5,2.56-12.23,6.69v23.96c0,1.24-2.48,2.48-4.3,2.48
		c-0.91,0-1.65-0.33-1.65-1.16v-32.39c0-1.32,2.64-2.56,4.3-2.56c0.91,0,1.65,0.41,1.65,1.24V978.68z"/>
	<path class="st0" d="M810.6,1008.09c0,1.32-2.56,2.48-4.3,2.48c-0.91,0-1.57-0.33-1.57-1.16v-3.06c-2.81,2.81-9.09,4.96-13.72,4.96
		c-7.85,0-13.47-3.72-13.47-12.81v-21.48c0-1.32,2.48-2.56,4.3-2.56c0.91,0,1.65,0.41,1.65,1.24v21.73c0,5.62,3.39,10.16,9.34,10.16
		c3.97,0,8.59-1.74,11.9-6.61v-23.96c0-1.32,2.48-2.56,4.21-2.56c0.99,0,1.65,0.41,1.65,1.24V1008.09z"/>
	<path class="st0" d="M840.85,973.64c10.08,0,17.43,7.52,17.43,18.34c0,11.07-7.85,19.42-19.67,19.42c-4.13,0-8.02-0.99-10.58-2.81
		c-0.58,1.07-2.81,1.98-4.38,1.98c-0.91,0-1.57-0.33-1.57-1.16v-52.05c0-1.32,2.64-2.31,4.13-2.31c1.07,0,1.82,0.25,1.82,1.07v21.73
		C831.76,974.88,836.14,973.64,840.85,973.64z M852.5,993.22c0-7.77-5.37-15.86-14.13-15.86c-4.38,0-8.43,2.23-10.33,6.61v16.53
		c2.07,4.54,8.26,7.19,13.3,7.19C848.94,1007.68,852.5,999.42,852.5,993.22z"/>
	<path class="st0" d="M900.5,988.67c0,0.74,0,1.49-0.17,2.15c-0.33,1.57-2.48,2.48-3.88,2.48h-27.02c0,7.02,5.45,14.38,13.14,14.38
		c3.97,0,8.68-1.74,10.99-4.05c0.91-0.91,1.9-1.07,3.06-1.07c0.74,0,1.49,0.41,1.49,1.32c0,0.58-0.5,1.24-0.91,1.57
		c-3.72,3.47-10.66,5.87-16.69,5.87c-10.16,0-17.1-6.86-17.1-17.68c0-11.24,8.43-19.83,20-19.83
		C893.15,973.8,900.5,981.98,900.5,988.67z M894.72,989.75c-0.5-6.94-6.2-12.31-13.8-12.31c-6.03,0-10.49,5.54-11.49,12.31H894.72z"
		/>
</g>
<g>
	<polygon class="st2" points="272.89,59.09 272.89,626.59 404.09,433.24 404.09,59.09 	"/>
	<polygon class="st2" points="334.87,731.11 404.09,731.11 404.09,629.11 	"/>
	<polygon class="st2" points="576.1,375.63 501.16,486.05 654.21,731.11 807.11,731.11 	"/>
	<polygon class="st2" points="747.82,121.51 748.31,121.84 576.1,375.63 501.16,486.05 404.09,629.11 334.87,731.11 272.89,731.11 
		272.89,626.59 404.09,433.24 657.3,60.09 657.98,59.09 790.12,59.09 	"/>
</g>
</svg>
