<?xml version="1.0" encoding="utf-8"?>
<!-- Generator: Adobe Illustrator 25.2.1, SVG Export Plug-In . SVG Version: 6.00 Build 0)  -->
<svg version="1.1" id="Layer_1" xmlns="http://www.w3.org/2000/svg" xmlns:xlink="http://www.w3.org/1999/xlink" x="0px" y="0px"
	 viewBox="0 0 1080 1080" style="enable-background:new 0 0 1080 1080;" xml:space="preserve">
<style type="text/css">
	.st0{fill:#231F20;}
	.st1{fill:#606161;}
	.st2{fill:#DAA528;}
</style>
<g>
	<path class="st0" d="M410.61,505.75l60.7,93.4h-40.13l-41.62-66.64l-24.03,32.21v34.44h-34.44V422.75h34.44v98.6l66.64-98.6h34.68
		L410.61,505.75z"/>
	<path class="st0" d="M530.27,599.15h-34.44V422.75h34.44V599.15z"/>
	<path class="st0" d="M699.23,548.36c0,16.35-4.42,28.9-13.25,37.66c-8.84,8.76-21.18,13.13-37.04,13.13h-23.78
		c-19.49,0-33.32-3.38-41.5-10.16c-8.18-6.77-12.26-18.5-12.26-35.18V422.75h74.57c16.85,0,29.52,4.21,38.03,12.63
		c8.5,8.42,12.76,20.31,12.76,35.68c0,8.92-2.27,16.52-6.81,22.79c-4.54,6.28-9.54,10.74-14.99,13.38
		C691.13,514.83,699.23,528.54,699.23,548.36z M643.23,491.63c12.72,0,19.08-6.36,19.08-19.08c0-12.72-6.36-19.08-19.08-19.08
		h-37.41v38.15H643.23z M664.79,546.62c0-7.93-1.41-13.91-4.21-17.96c-2.81-4.05-7.85-6.07-15.11-6.07h-39.64v27.75
		c0,6.77,1.69,11.48,5.08,14.12c3.38,2.64,8.96,3.96,16.72,3.96h17.84C658.35,568.43,664.79,561.16,664.79,546.62z"/>
	<path class="st0" d="M865.46,599.15h-34.44V527.8h-64.66v71.35h-34.44V422.75h34.44v74.57h64.66v-74.57h34.44V599.15z"/>
	<path class="st0" d="M1033.68,422.75V538.7c0,19.16-6.48,34.27-19.45,45.34c-12.97,11.07-28.95,16.6-47.94,16.6
		c-19,0-34.97-5.53-47.94-16.6c-12.97-11.06-19.45-26.18-19.45-45.34V422.75h34.44v114.71c0,10.9,3.01,19.04,9.04,24.4
		c6.03,5.37,14,8.05,23.91,8.05c9.91,0,17.92-2.68,24.03-8.05c6.11-5.37,9.17-13.5,9.17-24.4V422.75H1033.68z"/>
</g>
<g>
	<path class="st0" d="M336.24,650.89c0.74,0,1.47,0.41,1.47,1.23v51.3c0,1.06-2.78,2.45-4.25,2.45c-0.9,0-1.64-0.16-1.64-1.15
		v-51.38C331.82,652.12,334.44,650.89,336.24,650.89z"/>
	<path class="st0" d="M353.42,674.29c2.05-1.72,7.36-4.99,14.73-4.99c2.86,0,12.68,1.64,12.68,13.66v20.46
		c0,1.23-2.46,2.45-4.25,2.45c-0.9,0-1.64-0.33-1.64-1.15v-20.62c0-7.85-4.58-11.04-9.41-11.04c-4.25,0-9.41,2.54-12.11,6.63v23.73
		c0,1.23-2.45,2.45-4.25,2.45c-0.9,0-1.64-0.33-1.64-1.15v-32.07c0-1.31,2.62-2.54,4.25-2.54c0.9,0,1.64,0.41,1.64,1.23V674.29z"/>
	<path class="st0" d="M423.38,671.18c0,0.16-0.08,0.33-0.16,0.57l-15.05,32.81c-0.57,1.23-2.54,2.13-3.93,2.13
		c-0.74,0-1.39-0.16-1.64-0.82l-14.89-32.81c-0.08-0.08-0.08-0.16-0.08-0.25c0-1.55,3.27-2.7,4.42-2.7c0.57,0,1.15,0.16,1.39,0.65
		l12.44,27.41c0,0,10.31-22.58,11.86-26.02c0.65-1.15,2.46-2.04,3.76-2.04C422.32,670.12,423.38,670.36,423.38,671.18z"/>
	<path class="st0" d="M461.75,684.19c0,0.74,0,1.47-0.16,2.13c-0.33,1.55-2.46,2.46-3.85,2.46h-26.75c0,6.95,5.4,14.24,13.01,14.24
		c3.93,0,8.59-1.72,10.88-4.01c0.9-0.9,1.88-1.06,3.03-1.06c0.74,0,1.47,0.41,1.47,1.31c0,0.57-0.49,1.23-0.9,1.55
		c-3.68,3.44-10.55,5.81-16.53,5.81c-10.06,0-16.94-6.79-16.94-17.51c0-11.13,8.35-19.64,19.8-19.64
		C454.47,669.46,461.75,677.56,461.75,684.19z M456.03,685.25c-0.49-6.87-6.14-12.19-13.66-12.19c-5.97,0-10.39,5.48-11.37,12.19
		H456.03z"/>
	<path class="st0" d="M476.65,674.29c2.05-1.72,7.36-4.99,14.73-4.99c2.86,0,12.68,1.64,12.68,13.66v20.46
		c0,1.23-2.46,2.45-4.25,2.45c-0.9,0-1.64-0.33-1.64-1.15v-20.62c0-7.85-4.58-11.04-9.41-11.04c-4.25,0-9.41,2.54-12.11,6.63v23.73
		c0,1.23-2.45,2.45-4.25,2.45c-0.9,0-1.64-0.33-1.64-1.15v-32.07c0-1.31,2.62-2.54,4.25-2.54c0.9,0,1.64,0.41,1.64,1.23V674.29z"/>
	<path class="st0" d="M533.76,670.12c0.82,0,2.04,0.16,2.04,0.98c0,1.31-2.62,2.54-4.01,2.54h-10.23v23.07
		c0,4.34,3.35,6.54,6.14,6.54c1.15,0,2.13-0.57,2.78-1.23c1.39-1.47,3.11-1.55,3.93-1.55c0.98,0.08,1.39,0.49,1.39,0.98
		c0,0.74-1.39,1.88-3.44,3.19c-2.21,1.47-4.5,2.05-7.53,2.05c-4.99,0-9.08-3.19-9.08-8.92v-24.14h-4.01c-0.65,0-1.88-0.08-1.88-0.9
		c0-1.55,2.45-2.62,3.84-2.62h2.05v-13.66c0-1.47,2.62-2.45,4.17-2.45c0.82,0,1.64,0.25,1.64,1.15v14.97H533.76z"/>
	<path class="st0" d="M575.57,703.42c0,1.31-2.54,2.45-4.25,2.45c-0.9,0-1.55-0.33-1.55-1.15v-1.47c-4.09,2.21-8.67,3.44-13.99,3.44
		c-2.54,0-7.36-0.49-10.31-2.46c-2.37-1.55-5.07-4.99-5.07-8.92c0-6.38,4.01-9.9,9.33-11.86c3.68-1.39,7.36-1.47,10.06-1.47
		c3.85,0,7.85,1.23,9.98,1.72c0-6.05-3.84-10.96-12.27-10.96c-3.03,0-5.4,0.25-8.92,1.72c-0.98,0.41-2.05,1.06-3.03,1.06
		c-0.49,0-1.55-0.08-1.55-1.06c0-0.57,0.49-1.06,1.06-1.47c3.76-2.7,8.59-3.68,12.93-3.68c8.84,0,17.59,2.95,17.59,15.63V703.42z
		 M569.76,687.38c-2.54-1.72-6.22-2.45-9.41-2.45c-5.48,0-14.07,1.55-14.07,8.92c0,5.97,6.38,9.16,12.35,9.16
		c4.42,0,9.74-1.23,11.13-5.48V687.38z"/>
	<path class="st0" d="M608.54,671.84c0,1.64-2.78,2.54-4.25,2.54c-0.57,0-1.23-0.16-1.47-0.74c-0.33-0.25-0.82-0.57-1.64-0.57
		c-2.37,0-6.46,2.13-9,7.94v22.42c0,1.64-2.7,2.45-4.25,2.45c-0.82,0-1.64-0.16-1.64-1.15v-32.07c0-1.55,2.86-2.54,4.42-2.54
		c0.74,0,1.47,0.16,1.47,1.06v2.78c2.46-2.21,6.63-4.66,10.8-4.66C606.17,669.3,608.54,670.2,608.54,671.84z"/>
	<path class="st0" d="M616.15,658.5c2.21,0,3.35,1.39,3.35,3.03c0,2.04-2.21,3.44-4.25,3.44c-1.96,0-3.44-1.23-3.44-2.86
		C611.82,660.05,613.78,658.5,616.15,658.5z M614.52,705.87c-0.82,0-1.64-0.16-1.64-1.15v-32.07c0-1.31,2.62-2.54,4.09-2.54
		c0.98,0,1.64,0.49,1.64,1.06v32.24C618.53,704.89,615.91,705.87,614.52,705.87z"/>
	<path class="st0" d="M662.3,687.38c0,11.05-7.94,19.31-19.64,19.31c-9.98,0-16.77-7.53-16.77-17.59c0-10.39,7.61-19.8,19.47-19.8
		C654.69,669.3,662.3,677.73,662.3,687.38z M656.49,688.69c0-7.28-5.48-15.71-13.83-15.71c-7.04,0-11.04,8.18-11.04,14.73
		c0,7.36,5.07,15.38,13.5,15.38C652.48,703.09,656.49,696.3,656.49,688.69z"/>
	<path class="st0" d="M726.53,684.19c0,0.74,0,1.47-0.16,2.13c-0.33,1.55-2.46,2.46-3.85,2.46h-26.75c0,6.95,5.4,14.24,13.01,14.24
		c3.93,0,8.59-1.72,10.88-4.01c0.9-0.9,1.88-1.06,3.03-1.06c0.74,0,1.47,0.41,1.47,1.31c0,0.57-0.49,1.23-0.9,1.55
		c-3.68,3.44-10.55,5.81-16.53,5.81c-10.06,0-16.94-6.79-16.94-17.51c0-11.13,8.35-19.64,19.8-19.64
		C719.25,669.46,726.53,677.56,726.53,684.19z M720.8,685.25c-0.49-6.87-6.14-12.19-13.66-12.19c-5.97,0-10.39,5.48-11.37,12.19
		H720.8z"/>
	<path class="st0" d="M741.42,674.29c2.05-1.72,7.36-4.99,14.73-4.99c2.86,0,12.68,1.64,12.68,13.66v20.46
		c0,1.23-2.46,2.45-4.25,2.45c-0.9,0-1.64-0.33-1.64-1.15v-20.62c0-7.85-4.58-11.04-9.41-11.04c-4.25,0-9.41,2.54-12.11,6.63v23.73
		c0,1.23-2.45,2.45-4.25,2.45c-0.9,0-1.64-0.33-1.64-1.15v-32.07c0-1.31,2.62-2.54,4.25-2.54c0.9,0,1.64,0.41,1.64,1.23V674.29z"/>
	<path class="st0" d="M804.75,650.89c0.82,0,1.47,0.25,1.47,0.98v51.63c0,1.23-2.54,2.37-4.17,2.37c-0.9,0-1.55-0.33-1.55-0.98
		v-51.55C800.5,651.95,802.95,650.89,804.75,650.89z"/>
	<path class="st0" d="M847.22,703.42c0,1.31-2.54,2.45-4.25,2.45c-0.9,0-1.55-0.33-1.55-1.15v-1.47c-4.09,2.21-8.67,3.44-13.99,3.44
		c-2.54,0-7.36-0.49-10.31-2.46c-2.37-1.55-5.07-4.99-5.07-8.92c0-6.38,4.01-9.9,9.33-11.86c3.68-1.39,7.36-1.47,10.06-1.47
		c3.85,0,7.85,1.23,9.98,1.72c0-6.05-3.84-10.96-12.27-10.96c-3.03,0-5.4,0.25-8.92,1.72c-0.98,0.41-2.05,1.06-3.03,1.06
		c-0.49,0-1.55-0.08-1.55-1.06c0-0.57,0.49-1.06,1.06-1.47c3.76-2.7,8.59-3.68,12.93-3.68c8.84,0,17.59,2.95,17.59,15.63V703.42z
		 M841.41,687.38c-2.54-1.72-6.22-2.45-9.41-2.45c-5.48,0-14.07,1.55-14.07,8.92c0,5.97,6.38,9.16,12.35,9.16
		c4.42,0,9.74-1.23,11.13-5.48V687.38z"/>
	<path class="st0" d="M884.85,674.29c2.05-1.72,7.36-4.99,14.73-4.99c2.86,0,12.68,1.64,12.68,13.66v20.46
		c0,1.23-2.46,2.45-4.25,2.45c-0.9,0-1.64-0.33-1.64-1.15v-20.62c0-7.85-4.58-11.04-9.41-11.04c-4.25,0-9.41,2.54-12.11,6.63v23.73
		c0,1.23-2.45,2.45-4.25,2.45c-0.9,0-1.64-0.33-1.64-1.15v-32.07c0-1.31,2.62-2.54,4.25-2.54c0.9,0,1.64,0.41,1.64,1.23V674.29z"/>
	<path class="st0" d="M954.4,703.42c0,1.31-2.54,2.45-4.25,2.45c-0.9,0-1.55-0.33-1.55-1.15v-3.03c-2.78,2.78-9,4.91-13.58,4.91
		c-7.77,0-13.34-3.68-13.34-12.68v-21.27c0-1.31,2.45-2.54,4.25-2.54c0.9,0,1.64,0.41,1.64,1.23v21.52c0,5.56,3.35,10.06,9.25,10.06
		c3.93,0,8.51-1.72,11.78-6.55v-23.73c0-1.31,2.45-2.54,4.17-2.54c0.98,0,1.64,0.41,1.64,1.23V703.42z"/>
	<path class="st0" d="M984.35,669.3c9.98,0,17.26,7.45,17.26,18.16c0,10.96-7.77,19.23-19.47,19.23c-4.09,0-7.94-0.98-10.47-2.78
		c-0.57,1.06-2.78,1.96-4.34,1.96c-0.9,0-1.55-0.33-1.55-1.15v-51.54c0-1.31,2.62-2.29,4.09-2.29c1.06,0,1.8,0.25,1.8,1.06v21.52
		C975.35,670.53,979.69,669.3,984.35,669.3z M995.89,688.69c0-7.69-5.32-15.71-13.99-15.71c-4.34,0-8.35,2.21-10.23,6.54v16.36
		c2.04,4.5,8.18,7.12,13.17,7.12C992.37,703.01,995.89,694.83,995.89,688.69z"/>
	<path class="st0" d="M1043.43,684.19c0,0.74,0,1.47-0.16,2.13c-0.33,1.55-2.45,2.46-3.84,2.46h-26.75c0,6.95,5.4,14.24,13.01,14.24
		c3.93,0,8.59-1.72,10.88-4.01c0.9-0.9,1.88-1.06,3.03-1.06c0.74,0,1.47,0.41,1.47,1.31c0,0.57-0.49,1.23-0.9,1.55
		c-3.68,3.44-10.55,5.81-16.53,5.81c-10.06,0-16.94-6.79-16.94-17.51c0-11.13,8.35-19.64,19.8-19.64
		C1036.14,669.46,1043.43,677.56,1043.43,684.19z M1037.7,685.25c-0.49-6.87-6.14-12.19-13.66-12.19c-5.97,0-10.39,5.48-11.37,12.19
		H1037.7z"/>
</g>
<g>
	<polygon class="st0" points="74.82,722.26 108.78,722.26 108.78,672.22 	"/>
	<g>
		<polygon class="st0" points="44.42,392.61 44.42,670.99 108.78,576.14 108.78,392.61 		"/>
		<polygon class="st1" points="193.15,547.88 156.39,602.05 231.47,722.26 306.47,722.26 		"/>
		<polygon class="st2" points="277.39,423.23 277.63,423.39 193.15,547.88 156.39,602.05 108.78,672.22 74.82,722.26 44.42,722.26 
			44.42,670.99 108.78,576.14 232.98,393.1 233.32,392.61 298.14,392.61 		"/>
	</g>
</g>
</svg>
