<?xml version="1.0" encoding="utf-8"?>
<!-- Generator: Adobe Illustrator 25.2.1, SVG Export Plug-In . SVG Version: 6.00 Build 0)  -->
<svg version="1.1" id="Layer_1" xmlns="http://www.w3.org/2000/svg" xmlns:xlink="http://www.w3.org/1999/xlink" x="0px" y="0px"
	 viewBox="0 0 1080 1080" style="enable-background:new 0 0 1080 1080;" xml:space="preserve">
<style type="text/css">
	.st0{fill:#FFFFFF;}
	.st1{fill:#FFFFFF;stroke:#231F20;stroke-width:8;stroke-miterlimit:10;}
	.st2{fill:#FFFFFF;stroke:#231F20;stroke-width:10;stroke-miterlimit:10;}
</style>
<g>
	<path class="st0" d="M281.14,880.3l58.37,89.82h-38.6l-40.03-64.09L237.78,937v33.12h-33.12V800.48h33.12v94.82l64.09-94.82h33.35
		L281.14,880.3z"/>
	<path class="st0" d="M396.22,970.12H363.1V800.48h33.12V970.12z"/>
	<path class="st0" d="M558.7,921.28c0,15.72-4.25,27.8-12.75,36.21c-8.5,8.42-20.37,12.63-35.62,12.63h-22.87
		c-18.74,0-32.04-3.25-39.91-9.77c-7.86-6.51-11.79-17.79-11.79-33.83V800.48h71.71c16.2,0,28.39,4.05,36.57,12.15
		c8.18,8.1,12.27,19.54,12.27,34.31c0,8.58-2.18,15.88-6.55,21.92c-4.37,6.04-9.17,10.33-14.41,12.87
		C550.92,889.03,558.7,902.22,558.7,921.28z M504.86,866.72c12.23,0,18.35-6.11,18.35-18.35c0-12.23-6.12-18.34-18.35-18.34h-35.98
		v36.69H504.86z M525.59,919.61c0-7.62-1.35-13.38-4.05-17.27c-2.7-3.89-7.55-5.84-14.53-5.84h-38.12v26.68
		c0,6.51,1.63,11.04,4.88,13.58c3.25,2.54,8.61,3.81,16.08,3.81H507C519.39,940.57,525.59,933.59,525.59,919.61z"/>
	<path class="st0" d="M718.57,970.12h-33.12V901.5h-62.18v68.62h-33.12V800.48h33.12v71.71h62.18v-71.71h33.12V970.12z"/>
	<path class="st0" d="M880.34,800.48v111.5c0,18.43-6.24,32.96-18.7,43.6c-12.47,10.64-27.84,15.96-46.1,15.96
		c-18.27,0-33.63-5.32-46.1-15.96c-12.47-10.64-18.7-25.17-18.7-43.6v-111.5h33.12v110.31c0,10.48,2.9,18.31,8.7,23.47
		c5.8,5.16,13.46,7.74,22.99,7.74c9.53,0,17.23-2.58,23.11-7.74c5.88-5.16,8.82-12.99,8.82-23.47V800.48H880.34z"/>
</g>
<g>
	<polygon class="st2" points="334.87,770.94 404.09,770.94 404.09,668.94 	"/>
	<g>
		<polygon class="st2" points="272.89,98.92 272.89,666.42 404.09,473.07 404.09,98.92 		"/>
		<polygon class="st2" points="576.1,415.46 501.16,525.88 654.21,770.94 807.11,770.94 		"/>
		<polygon class="st2" points="747.82,161.34 748.31,161.67 576.1,415.46 501.16,525.88 404.09,668.94 334.87,770.94 272.89,770.94 
			272.89,666.42 404.09,473.07 657.3,99.92 657.98,98.92 790.12,98.92 		"/>
	</g>
</g>
</svg>
